<?xml version="1.0" encoding="UTF-8"?>
<svg width="82px" height="34px" viewBox="0 0 82 34" version="1.1" xmlns="http://www.w3.org/2000/svg" xmlns:xlink="http://www.w3.org/1999/xlink">
    <!-- Generator: Sketch 50.2 (55047) - http://www.bohemiancoding.com/sketch -->
    <title>tg_bestseller</title>
    <desc>Created with Sketch.</desc>
    <defs>
        <path d="M0,29 L0,24 L0,5 C-3.38176876e-16,2.23857625 2.23857625,5.07265313e-16 5,0 L82,0 L74,12 L82,24 L10,24 L5,24 C2.23857625,24 -3.38176876e-16,26.2385763 0,29 Z" id="path-1"></path>
        <filter x="-4.3%" y="-12.1%" width="113.4%" height="137.9%" filterUnits="objectBoundingBox" id="filter-2">
            <feOffset dx="2" dy="2" in="SourceAlpha" result="shadowOffsetOuter1"></feOffset>
            <feGaussianBlur stdDeviation="1.5" in="shadowOffsetOuter1" result="shadowBlurOuter1"></feGaussianBlur>
            <feColorMatrix values="0 0 0 0 0   0 0 0 0 0   0 0 0 0 0  0 0 0 0.15 0" type="matrix" in="shadowBlurOuter1"></feColorMatrix>
        </filter>
    </defs>
    <g id="tg_bestseller" stroke="none" stroke-width="1" fill="none" fill-rule="evenodd">
        <g id="tag_01">
            <path d="M5,24 L10,24 L10,34 L5,34 C2.23857625,34 3.38176876e-16,31.7614237 0,29 L0,29 C-3.38176876e-16,26.2385763 2.23857625,24 5,24 Z" id="bg_darker" fill="#BB7400"></path>
            <g id="bg_tag">
                <use fill="black" fill-opacity="1" filter="url(#filter-2)" xlink:href="#path-1"></use>
                <use fill="#D18306" fill-rule="evenodd" xlink:href="#path-1"></use>
            </g>
            <path d="M11.322,16 L11.322,7.324 L14.316,7.324 C14.8840028,7.324 15.368998,7.37799946 15.771,7.486 C16.173002,7.59400054 16.5029987,7.747999 16.761,7.948 C17.0190013,8.148001 17.2079994,8.38999858 17.328,8.674 C17.4480006,8.95800142 17.508,9.27799822 17.508,9.634 C17.508,9.83800102 17.4780003,10.0329991 17.418,10.219 C17.3579997,10.4050009 17.2650006,10.5789992 17.139,10.741 C17.0129994,10.9030008 16.853001,11.0499993 16.659,11.182 C16.464999,11.3140007 16.2340013,11.4259995 15.966,11.518 C17.158006,11.7860013 17.754,12.4299949 17.754,13.45 C17.754,13.8180018 17.6840007,14.1579984 17.544,14.47 C17.4039993,14.7820016 17.2000013,15.0509989 16.932,15.277 C16.6639987,15.5030011 16.334002,15.6799994 15.942,15.808 C15.549998,15.9360006 15.1020025,16 14.598,16 L11.322,16 Z M12.936,12.196 L12.936,14.74 L14.574,14.74 C14.8740015,14.74 15.124999,14.7040004 15.327,14.632 C15.529001,14.5599996 15.6909994,14.4640006 15.813,14.344 C15.9350006,14.2239994 16.0229997,14.0840008 16.077,13.924 C16.1310003,13.7639992 16.158,13.5940009 16.158,13.414 C16.158,13.2259991 16.1280003,13.0570008 16.068,12.907 C16.0079997,12.7569992 15.9140006,12.6290005 15.786,12.523 C15.6579994,12.4169995 15.494001,12.3360003 15.294,12.28 C15.093999,12.2239997 14.8520014,12.196 14.568,12.196 L12.936,12.196 Z M12.936,11.08 L14.226,11.08 C14.7740027,11.08 15.1899986,10.980001 15.474,10.78 C15.7580014,10.579999 15.9,10.2620022 15.9,9.826 C15.9,9.37399774 15.7720013,9.05200096 15.516,8.86 C15.2599987,8.66799904 14.8600027,8.572 14.316,8.572 L12.936,8.572 L12.936,11.08 Z M21.6,9.748 C21.9880019,9.748 22.3449984,9.80999938 22.671,9.934 C22.9970016,10.0580006 23.2779988,10.2389988 23.514,10.477 C23.7500012,10.7150012 23.9339993,11.0069983 24.066,11.353 C24.1980007,11.6990017 24.264,12.0939978 24.264,12.538 C24.264,12.6500006 24.259,12.7429996 24.249,12.817 C24.2389999,12.8910004 24.2210001,12.9489998 24.195,12.991 C24.1689999,13.0330002 24.1340002,13.0629999 24.09,13.081 C24.0459998,13.0990001 23.9900003,13.108 23.922,13.108 L20.118,13.108 C20.1620002,13.7400032 20.3319985,14.2039985 20.628,14.5 C20.9240015,14.7960015 21.3159976,14.944 21.804,14.944 C22.0440012,14.944 22.2509991,14.9160003 22.425,14.86 C22.5990009,14.8039997 22.7509993,14.7420003 22.881,14.674 C23.0110006,14.6059997 23.1249995,14.5440003 23.223,14.488 C23.3210005,14.4319997 23.4159995,14.404 23.508,14.404 C23.5680003,14.404 23.6199998,14.4159999 23.664,14.44 C23.7080002,14.4640001 23.7459998,14.4979998 23.778,14.542 L24.21,15.082 C24.0459992,15.274001 23.862001,15.4349994 23.658,15.565 C23.453999,15.6950007 23.2410011,15.7989996 23.019,15.877 C22.7969989,15.9550004 22.5710011,16.0099998 22.341,16.042 C22.1109988,16.0740002 21.8880011,16.09 21.672,16.09 C21.2439979,16.09 20.8460018,16.0190007 20.478,15.877 C20.1099982,15.7349993 19.7900014,15.5250014 19.518,15.247 C19.2459986,14.9689986 19.0320008,14.6250021 18.876,14.215 C18.7199992,13.804998 18.642,13.3300027 18.642,12.79 C18.642,12.3699979 18.7099993,11.9750019 18.846,11.605 C18.9820007,11.2349982 19.1769987,10.9130014 19.431,10.639 C19.6850013,10.3649986 19.9949982,10.1480008 20.361,9.988 C20.7270018,9.8279992 21.1399977,9.748 21.6,9.748 Z M21.63,10.81 C21.1979978,10.81 20.8600012,10.9319988 20.616,11.176 C20.3719988,11.4200012 20.2160003,11.7659978 20.148,12.214 L22.932,12.214 C22.932,12.021999 22.9060003,11.8410009 22.854,11.671 C22.8019997,11.5009991 22.7220005,11.3520006 22.614,11.224 C22.5059995,11.0959994 22.3700008,10.9950004 22.206,10.921 C22.0419992,10.8469996 21.8500011,10.81 21.63,10.81 Z M29.124,11.044 C29.0839998,11.1080003 29.0420002,11.1529999 28.998,11.179 C28.9539998,11.2050001 28.8980003,11.218 28.83,11.218 C28.7579996,11.218 28.6810004,11.1980002 28.599,11.158 C28.5169996,11.1179998 28.4220005,11.0730002 28.314,11.023 C28.2059995,10.9729997 28.0830007,10.9280002 27.945,10.888 C27.8069993,10.8479998 27.6440009,10.828 27.456,10.828 C27.1639985,10.828 26.9340008,10.8899994 26.766,11.014 C26.5979992,11.1380006 26.514,11.299999 26.514,11.5 C26.514,11.6320007 26.5569996,11.7429996 26.643,11.833 C26.7290004,11.9230004 26.8429993,12.0019997 26.985,12.07 C27.1270007,12.1380003 27.2879991,12.1989997 27.468,12.253 C27.6480009,12.3070003 27.8319991,12.3659997 28.02,12.43 C28.2080009,12.4940003 28.3919991,12.5669996 28.572,12.649 C28.7520009,12.7310004 28.9129993,12.8349994 29.055,12.961 C29.1970007,13.0870006 29.3109996,13.2379991 29.397,13.414 C29.4830004,13.5900009 29.526,13.8019988 29.526,14.05 C29.526,14.3460015 29.4720005,14.6189987 29.364,14.869 C29.2559995,15.1190013 29.098001,15.3349991 28.89,15.517 C28.681999,15.6990009 28.4250015,15.8409995 28.119,15.943 C27.8129985,16.0450005 27.462002,16.096 27.066,16.096 C26.8539989,16.096 26.647001,16.0770002 26.445,16.039 C26.242999,16.0009998 26.0490009,15.9480003 25.863,15.88 C25.6769991,15.8119997 25.5050008,15.7320005 25.347,15.64 C25.1889992,15.5479995 25.0500006,15.4480005 24.93,15.34 L25.272,14.776 C25.3160002,14.7079997 25.3679997,14.6560002 25.428,14.62 C25.4880003,14.5839998 25.5639995,14.566 25.656,14.566 C25.7480005,14.566 25.8349996,14.5919997 25.917,14.644 C25.9990004,14.6960003 26.0939995,14.7519997 26.202,14.812 C26.3100005,14.8720003 26.4369993,14.9279997 26.583,14.98 C26.7290007,15.0320003 26.9139989,15.058 27.138,15.058 C27.3140009,15.058 27.4649994,15.0370002 27.591,14.995 C27.7170006,14.9529998 27.8209996,14.8980003 27.903,14.83 C27.9850004,14.7619997 28.0449998,14.6830004 28.083,14.593 C28.1210002,14.5029996 28.14,14.4100005 28.14,14.314 C28.14,14.1699993 28.0970004,14.0520005 28.011,13.96 C27.9249996,13.8679995 27.8110007,13.7880003 27.669,13.72 C27.5269993,13.6519997 27.3650009,13.5910003 27.183,13.537 C27.0009991,13.4829997 26.8150009,13.4240003 26.625,13.36 C26.434999,13.2959997 26.2490009,13.2210004 26.067,13.135 C25.8849991,13.0489996 25.7230007,12.9400007 25.581,12.808 C25.4389993,12.6759993 25.3250004,12.514001 25.239,12.322 C25.1529996,12.129999 25.11,11.8980014 25.11,11.626 C25.11,11.3739987 25.1599995,11.1340011 25.26,10.906 C25.3600005,10.6779989 25.506999,10.4790009 25.701,10.309 C25.895001,10.1389992 26.1369985,10.0030005 26.427,9.901 C26.7170014,9.79899949 27.0519981,9.748 27.432,9.748 C27.8560021,9.748 28.2419983,9.8179993 28.59,9.958 C28.9380017,10.0980007 29.2279988,10.2819989 29.46,10.51 L29.124,11.044 Z M32.736,16.096 C32.2039973,16.096 31.7940014,15.9450015 31.506,15.643 C31.2179986,15.3409985 31.074,14.9240027 31.074,14.392 L31.074,10.954 L30.45,10.954 C30.3699996,10.954 30.3010003,10.9280003 30.243,10.876 C30.1849997,10.8239997 30.156,10.7460005 30.156,10.642 L30.156,10.054 L31.146,9.892 L31.458,8.212 C31.4740001,8.1319996 31.5109997,8.07000022 31.569,8.026 C31.6270003,7.98199978 31.6999996,7.96 31.788,7.96 L32.556,7.96 L32.556,9.898 L34.176,9.898 L34.176,10.954 L32.556,10.954 L32.556,14.29 C32.556,14.482001 32.6039995,14.6319995 32.7,14.74 C32.7960005,14.8480005 32.9239992,14.902 33.084,14.902 C33.1760005,14.902 33.2529997,14.8910001 33.315,14.869 C33.3770003,14.8469999 33.4309998,14.8240001 33.477,14.8 C33.5230002,14.7759999 33.5639998,14.7530001 33.6,14.731 C33.6360002,14.7089999 33.6719998,14.698 33.708,14.698 C33.7520002,14.698 33.7879999,14.7089999 33.816,14.731 C33.8440001,14.7530001 33.8739998,14.7859998 33.906,14.83 L34.35,15.55 C34.1339989,15.7300009 33.8860014,15.8659995 33.606,15.958 C33.3259986,16.0500005 33.0360015,16.096 32.736,16.096 Z M42.408,8.902 C42.3639998,8.99000044 42.3130003,9.05199982 42.255,9.088 C42.1969997,9.12400018 42.1280004,9.142 42.048,9.142 C41.9679996,9.142 41.8780005,9.11100031 41.778,9.049 C41.6779995,8.98699969 41.5600007,8.91800038 41.424,8.842 C41.2879993,8.76599962 41.1290009,8.69700031 40.947,8.635 C40.7649991,8.57299969 40.5500012,8.542 40.302,8.542 C40.0779989,8.542 39.8830008,8.56899973 39.717,8.623 C39.5509992,8.67700027 39.4110006,8.75199952 39.297,8.848 C39.1829994,8.94400048 39.0980003,9.05899933 39.042,9.193 C38.9859997,9.32700067 38.958,9.4739992 38.958,9.634 C38.958,9.83800102 39.0149994,10.0079993 39.129,10.144 C39.2430006,10.2800007 39.3939991,10.3959995 39.582,10.492 C39.7700009,10.5880005 39.9839988,10.6739996 40.224,10.75 C40.4640012,10.8260004 40.7089987,10.9069996 40.959,10.993 C41.2090012,11.0790004 41.4539988,11.1789994 41.694,11.293 C41.9340012,11.4070006 42.1479991,11.5509991 42.336,11.725 C42.5240009,11.8990009 42.6749994,12.1119987 42.789,12.364 C42.9030006,12.6160013 42.96,12.9219982 42.96,13.282 C42.96,13.674002 42.8930007,14.0409983 42.759,14.383 C42.6249993,14.7250017 42.4290013,15.0229987 42.171,15.277 C41.9129987,15.5310013 41.5980019,15.7309993 41.226,15.877 C40.8539981,16.0230007 40.4280024,16.096 39.948,16.096 C39.6719986,16.096 39.4000013,16.0690003 39.132,16.015 C38.8639987,15.9609997 38.6070012,15.8840005 38.361,15.784 C38.1149988,15.6839995 37.8850011,15.5640007 37.671,15.424 C37.4569989,15.2839993 37.2660008,15.1280009 37.098,14.956 L37.566,14.182 C37.6100002,14.1259997 37.6629997,14.0790002 37.725,14.041 C37.7870003,14.0029998 37.8559996,13.984 37.932,13.984 C38.0320005,13.984 38.1399994,14.0249996 38.256,14.107 C38.3720006,14.1890004 38.5089992,14.2799995 38.667,14.38 C38.8250008,14.4800005 39.0109989,14.5709996 39.225,14.653 C39.4390011,14.7350004 39.6959985,14.776 39.996,14.776 C40.4560023,14.776 40.8119987,14.6670011 41.064,14.449 C41.3160013,14.2309989 41.442,13.918002 41.442,13.51 C41.442,13.2819989 41.3850006,13.0960007 41.271,12.952 C41.1569994,12.8079993 41.0060009,12.6870005 40.818,12.589 C40.6299991,12.4909995 40.4160012,12.4080003 40.176,12.34 C39.9359988,12.2719997 39.6920012,12.1980004 39.444,12.118 C39.1959988,12.0379996 38.9520012,11.9420006 38.712,11.83 C38.4719988,11.7179994 38.2580009,11.5720009 38.07,11.392 C37.8819991,11.2119991 37.7310006,10.9870013 37.617,10.717 C37.5029994,10.4469987 37.446,10.114002 37.446,9.718 C37.446,9.40199842 37.5089994,9.0940015 37.635,8.794 C37.7610006,8.4939985 37.9449988,8.22800116 38.187,7.996 C38.4290012,7.76399884 38.7259982,7.5780007 39.078,7.438 C39.4300018,7.2979993 39.8319977,7.228 40.284,7.228 C40.7960026,7.228 41.2679978,7.3079992 41.7,7.468 C42.1320022,7.6280008 42.4999985,7.85199856 42.804,8.14 L42.408,8.902 Z M46.656,9.748 C47.0440019,9.748 47.4009984,9.80999938 47.727,9.934 C48.0530016,10.0580006 48.3339988,10.2389988 48.57,10.477 C48.8060012,10.7150012 48.9899993,11.0069983 49.122,11.353 C49.2540007,11.6990017 49.32,12.0939978 49.32,12.538 C49.32,12.6500006 49.315,12.7429996 49.305,12.817 C49.2949999,12.8910004 49.2770001,12.9489998 49.251,12.991 C49.2249999,13.0330002 49.1900002,13.0629999 49.146,13.081 C49.1019998,13.0990001 49.0460003,13.108 48.978,13.108 L45.174,13.108 C45.2180002,13.7400032 45.3879985,14.2039985 45.684,14.5 C45.9800015,14.7960015 46.3719976,14.944 46.86,14.944 C47.1000012,14.944 47.3069991,14.9160003 47.481,14.86 C47.6550009,14.8039997 47.8069993,14.7420003 47.937,14.674 C48.0670006,14.6059997 48.1809995,14.5440003 48.279,14.488 C48.3770005,14.4319997 48.4719995,14.404 48.564,14.404 C48.6240003,14.404 48.6759998,14.4159999 48.72,14.44 C48.7640002,14.4640001 48.8019998,14.4979998 48.834,14.542 L49.266,15.082 C49.1019992,15.274001 48.918001,15.4349994 48.714,15.565 C48.509999,15.6950007 48.2970011,15.7989996 48.075,15.877 C47.8529989,15.9550004 47.6270011,16.0099998 47.397,16.042 C47.1669988,16.0740002 46.9440011,16.09 46.728,16.09 C46.2999979,16.09 45.9020018,16.0190007 45.534,15.877 C45.1659982,15.7349993 44.8460014,15.5250014 44.574,15.247 C44.3019986,14.9689986 44.0880008,14.6250021 43.932,14.215 C43.7759992,13.804998 43.698,13.3300027 43.698,12.79 C43.698,12.3699979 43.7659993,11.9750019 43.902,11.605 C44.0380007,11.2349982 44.2329987,10.9130014 44.487,10.639 C44.7410013,10.3649986 45.0509982,10.1480008 45.417,9.988 C45.7830018,9.8279992 46.1959977,9.748 46.656,9.748 Z M46.686,10.81 C46.2539978,10.81 45.9160012,10.9319988 45.672,11.176 C45.4279988,11.4200012 45.2720003,11.7659978 45.204,12.214 L47.988,12.214 C47.988,12.021999 47.9620003,11.8410009 47.91,11.671 C47.8579997,11.5009991 47.7780005,11.3520006 47.67,11.224 C47.5619995,11.0959994 47.4260008,10.9950004 47.262,10.921 C47.0979992,10.8469996 46.9060011,10.81 46.686,10.81 Z M52.104,7.084 L52.104,16 L50.622,16 L50.622,7.084 L52.104,7.084 Z M55.356,7.084 L55.356,16 L53.874,16 L53.874,7.084 L55.356,7.084 Z M59.574,9.748 C59.9620019,9.748 60.3189984,9.80999938 60.645,9.934 C60.9710016,10.0580006 61.2519988,10.2389988 61.488,10.477 C61.7240012,10.7150012 61.9079993,11.0069983 62.04,11.353 C62.1720007,11.6990017 62.238,12.0939978 62.238,12.538 C62.238,12.6500006 62.233,12.7429996 62.223,12.817 C62.2129999,12.8910004 62.1950001,12.9489998 62.169,12.991 C62.1429999,13.0330002 62.1080002,13.0629999 62.064,13.081 C62.0199998,13.0990001 61.9640003,13.108 61.896,13.108 L58.092,13.108 C58.1360002,13.7400032 58.3059985,14.2039985 58.602,14.5 C58.8980015,14.7960015 59.2899976,14.944 59.778,14.944 C60.0180012,14.944 60.2249991,14.9160003 60.399,14.86 C60.5730009,14.8039997 60.7249993,14.7420003 60.855,14.674 C60.9850006,14.6059997 61.0989995,14.5440003 61.197,14.488 C61.2950005,14.4319997 61.3899995,14.404 61.482,14.404 C61.5420003,14.404 61.5939998,14.4159999 61.638,14.44 C61.6820002,14.4640001 61.7199998,14.4979998 61.752,14.542 L62.184,15.082 C62.0199992,15.274001 61.836001,15.4349994 61.632,15.565 C61.427999,15.6950007 61.2150011,15.7989996 60.993,15.877 C60.7709989,15.9550004 60.5450011,16.0099998 60.315,16.042 C60.0849988,16.0740002 59.8620011,16.09 59.646,16.09 C59.2179979,16.09 58.8200018,16.0190007 58.452,15.877 C58.0839982,15.7349993 57.7640014,15.5250014 57.492,15.247 C57.2199986,14.9689986 57.0060008,14.6250021 56.85,14.215 C56.6939992,13.804998 56.616,13.3300027 56.616,12.79 C56.616,12.3699979 56.6839993,11.9750019 56.82,11.605 C56.9560007,11.2349982 57.1509987,10.9130014 57.405,10.639 C57.6590013,10.3649986 57.9689982,10.1480008 58.335,9.988 C58.7010018,9.8279992 59.1139977,9.748 59.574,9.748 Z M59.604,10.81 C59.1719978,10.81 58.8340012,10.9319988 58.59,11.176 C58.3459988,11.4200012 58.1900003,11.7659978 58.122,12.214 L60.906,12.214 C60.906,12.021999 60.8800003,11.8410009 60.828,11.671 C60.7759997,11.5009991 60.6960005,11.3520006 60.588,11.224 C60.4799995,11.0959994 60.3440008,10.9950004 60.18,10.921 C60.0159992,10.8469996 59.8240011,10.81 59.604,10.81 Z M63.444,16 L63.444,9.844 L64.314,9.844 C64.4660008,9.844 64.5719997,9.87199972 64.632,9.928 C64.6920003,9.98400028 64.7319999,10.0799993 64.752,10.216 L64.842,10.96 C65.0620011,10.5799981 65.3199985,10.2800011 65.616,10.06 C65.9120015,9.8399989 66.2439982,9.73 66.612,9.73 C66.9160015,9.73 67.167999,9.7999993 67.368,9.94 L67.176,11.05 C67.1639999,11.1220004 67.1380002,11.1729999 67.098,11.203 C67.0579998,11.2330002 67.0040003,11.248 66.936,11.248 C66.8759997,11.248 66.7940005,11.2340001 66.69,11.206 C66.5859995,11.1779999 66.4480009,11.164 66.276,11.164 C65.9679985,11.164 65.7040011,11.2489992 65.484,11.419 C65.2639989,11.5890008 65.0780008,11.8379984 64.926,12.166 L64.926,16 L63.444,16 Z" id="Text" fill="#FFFFFF"></path>
        </g>
    </g>
</svg>
