<?xml version="1.0" encoding="UTF-8"?>
<svg width="125px" height="34px" viewBox="0 0 125 34" version="1.1" xmlns="http://www.w3.org/2000/svg" xmlns:xlink="http://www.w3.org/1999/xlink">
    <!-- Generator: Sketch 50.2 (55047) - http://www.bohemiancoding.com/sketch -->
    <title>tg_manufacturerparts</title>
    <desc>Created with Sketch.</desc>
    <defs>
        <path d="M0,29 L0,24 L0,5 C-3.38176876e-16,2.23857625 2.23857625,5.07265313e-16 5,0 L125,0 L117,12 L125,24 L10,24 L5,24 C2.23857625,24 -3.38176876e-16,26.2385763 0,29 Z" id="path-1"></path>
        <filter x="-2.8%" y="-12.1%" width="108.8%" height="137.9%" filterUnits="objectBoundingBox" id="filter-2">
            <feOffset dx="2" dy="2" in="SourceAlpha" result="shadowOffsetOuter1"></feOffset>
            <feGaussianBlur stdDeviation="1.5" in="shadowOffsetOuter1" result="shadowBlurOuter1"></feGaussianBlur>
            <feColorMatrix values="0 0 0 0 0   0 0 0 0 0   0 0 0 0 0  0 0 0 0.15 0" type="matrix" in="shadowBlurOuter1"></feColorMatrix>
        </filter>
    </defs>
    <g id="tg_manufacturerparts" stroke="none" stroke-width="1" fill="none" fill-rule="evenodd">
        <g id="tag_02">
            <path d="M5,24 L10,24 L10,34 L5,34 C2.23857625,34 3.38176876e-16,31.7614237 0,29 L0,29 C-3.38176876e-16,26.2385763 2.23857625,24 5,24 Z" id="bg_darker" fill="#488803"></path>
            <g id="bg_tag">
                <use fill="black" fill-opacity="1" filter="url(#filter-2)" xlink:href="#path-1"></use>
                <use fill="#4D9900" fill-rule="evenodd" xlink:href="#path-1"></use>
            </g>
            <path d="M15.419,12.4 C15.4870003,12.5280006 15.5499997,12.6609993 15.608,12.799 C15.6660003,12.9370007 15.7229997,13.0759993 15.779,13.216 C15.8350003,13.0719993 15.8929997,12.9300007 15.953,12.79 C16.0130003,12.6499993 16.0769997,12.5160006 16.145,12.388 L18.713,7.582 C18.7450002,7.5219997 18.7779998,7.47400018 18.812,7.438 C18.8460002,7.40199982 18.8839998,7.37600008 18.926,7.36 C18.9680002,7.34399992 19.0149997,7.33400002 19.067,7.33 C19.1190003,7.32599998 19.1809996,7.324 19.253,7.324 L20.471,7.324 L20.471,16 L19.049,16 L19.049,10.396 C19.049,10.2919995 19.052,10.1780006 19.058,10.054 C19.064,9.92999938 19.0729999,9.80400064 19.085,9.676 L16.463,14.596 C16.4029997,14.7080006 16.3250005,14.7949997 16.229,14.857 C16.1329995,14.9190003 16.0210006,14.95 15.893,14.95 L15.671,14.95 C15.5429994,14.95 15.4310005,14.9190003 15.335,14.857 C15.2389995,14.7949997 15.1610003,14.7080006 15.101,14.596 L12.443,9.658 C12.4590001,9.79000066 12.47,9.91899937 12.476,10.045 C12.482,10.1710006 12.485,10.2879995 12.485,10.396 L12.485,16 L11.063,16 L11.063,7.324 L12.281,7.324 C12.3530004,7.324 12.4149997,7.32599998 12.467,7.33 C12.5190003,7.33400002 12.5659998,7.34399992 12.608,7.36 C12.6500002,7.37600008 12.6889998,7.40199982 12.725,7.438 C12.7610002,7.47400018 12.7949998,7.5219997 12.827,7.582 L15.419,12.4 Z M26.963,16 L26.297,16 C26.1569993,16 26.0470004,15.9790002 25.967,15.937 C25.8869996,15.8949998 25.8270002,15.8100006 25.787,15.682 L25.655,15.244 C25.4989992,15.3840007 25.3460008,15.5069995 25.196,15.613 C25.0459993,15.7190005 24.8910008,15.8079996 24.731,15.88 C24.5709992,15.9520004 24.4010009,16.0059998 24.221,16.042 C24.0409991,16.0780002 23.8410011,16.096 23.621,16.096 C23.3609987,16.096 23.1210011,16.0610004 22.901,15.991 C22.6809989,15.9209996 22.4920008,15.8160007 22.334,15.676 C22.1759992,15.5359993 22.0530004,15.362001 21.965,15.154 C21.8769996,14.945999 21.833,14.7040014 21.833,14.428 C21.833,14.1959988 21.8939994,13.9670011 22.016,13.741 C22.1380006,13.5149989 22.3409986,13.3110009 22.625,13.129 C22.9090014,12.9469991 23.2869976,12.7960006 23.759,12.676 C24.2310024,12.5559994 24.8169965,12.4880001 25.517,12.472 L25.517,12.112 C25.517,11.6999979 25.4300009,11.395001 25.256,11.197 C25.0819991,10.998999 24.8290017,10.9 24.497,10.9 C24.2569988,10.9 24.0570008,10.9279997 23.897,10.984 C23.7369992,11.0400003 23.5980006,11.1029996 23.48,11.173 C23.3619994,11.2430003 23.2530005,11.3059997 23.153,11.362 C23.0529995,11.4180003 22.9430006,11.446 22.823,11.446 C22.7229995,11.446 22.6370004,11.4200003 22.565,11.368 C22.4929996,11.3159997 22.4350002,11.2520004 22.391,11.176 L22.121,10.702 C22.8290035,10.0539968 23.682995,9.73 24.683,9.73 C25.0430018,9.73 25.3639986,9.78899941 25.646,9.907 C25.9280014,10.0250006 26.166999,10.1889989 26.363,10.399 C26.559001,10.609001 26.7079995,10.8599985 26.81,11.152 C26.9120005,11.4440015 26.963,11.7639983 26.963,12.112 L26.963,16 Z M24.083,15.076 C24.2350008,15.076 24.3749994,15.0620001 24.503,15.034 C24.6310006,15.0059999 24.7519994,14.9640003 24.866,14.908 C24.9800006,14.8519997 25.0899995,14.7830004 25.196,14.701 C25.3020005,14.6189996 25.4089995,14.5220006 25.517,14.41 L25.517,13.372 C25.0849978,13.3920001 24.7240015,13.4289997 24.434,13.483 C24.1439985,13.5370003 23.9110009,13.6059996 23.735,13.69 C23.5589991,13.7740004 23.4340004,13.8719994 23.36,13.984 C23.2859996,14.0960006 23.249,14.2179993 23.249,14.35 C23.249,14.6100013 23.3259992,14.7959994 23.48,14.908 C23.6340008,15.0200006 23.8349988,15.076 24.083,15.076 Z M28.421,16 L28.421,9.844 L29.327,9.844 C29.519001,9.844 29.6449997,9.9339991 29.705,10.114 L29.807,10.6 C29.9310006,10.4719994 30.0619993,10.3560005 30.2,10.252 C30.3380007,10.1479995 30.4839992,10.0580004 30.638,9.982 C30.7920008,9.90599962 30.9569991,9.8480002 31.133,9.808 C31.3090009,9.7679998 31.500999,9.748 31.709,9.748 C32.0450017,9.748 32.3429987,9.80499943 32.603,9.919 C32.8630013,10.0330006 33.0799991,10.192999 33.254,10.399 C33.4280009,10.605001 33.5599996,10.8509986 33.65,11.137 C33.7400004,11.4230014 33.785,11.7379983 33.785,12.082 L33.785,16 L32.303,16 L32.303,12.082 C32.303,11.7059981 32.2160009,11.415001 32.042,11.209 C31.8679991,11.002999 31.6070017,10.9 31.259,10.9 C31.0029987,10.9 30.7630011,10.9579994 30.539,11.074 C30.3149989,11.1900006 30.103001,11.347999 29.903,11.548 L29.903,16 L28.421,16 Z M36.599,9.844 L36.599,13.756 C36.599,14.1320019 36.6859991,14.422999 36.86,14.629 C37.0340009,14.835001 37.2949983,14.938 37.643,14.938 C37.8990013,14.938 38.1389989,14.8810006 38.363,14.767 C38.5870011,14.6529994 38.798999,14.496001 38.999,14.296 L38.999,9.844 L40.481,9.844 L40.481,16 L39.575,16 C39.382999,16 39.2570003,15.9100009 39.197,15.73 L39.095,15.238 C38.9669994,15.3660006 38.8350007,15.4829995 38.699,15.589 C38.5629993,15.6950005 38.4180008,15.7849996 38.264,15.859 C38.1099992,15.9330004 37.9440009,15.9909998 37.766,16.033 C37.5879991,16.0750002 37.397001,16.096 37.193,16.096 C36.8569983,16.096 36.5600013,16.0390006 36.302,15.925 C36.0439987,15.8109994 35.8270009,15.650001 35.651,15.442 C35.4749991,15.233999 35.3420004,14.9870014 35.252,14.701 C35.1619995,14.4149986 35.117,14.1000017 35.117,13.756 L35.117,9.844 L36.599,9.844 Z M42.329,16 L42.329,10.96 L41.795,10.876 C41.6789994,10.8559999 41.5860003,10.8160003 41.516,10.756 C41.4459997,10.6959997 41.411,10.6120005 41.411,10.504 L41.411,9.898 L42.329,9.898 L42.329,9.442 C42.329,9.08999824 42.3819995,8.7740014 42.488,8.494 C42.5940005,8.2139986 42.745999,7.97600098 42.944,7.78 C43.142001,7.58399902 43.3829986,7.43400052 43.667,7.33 C43.9510014,7.22599948 44.2709982,7.174 44.627,7.174 C44.9110014,7.174 45.1749988,7.21199962 45.419,7.288 L45.389,8.032 C45.381,8.14800058 45.3270005,8.21999986 45.227,8.248 C45.1269995,8.27600014 45.0110007,8.29 44.879,8.29 C44.7029991,8.29 44.5460007,8.30899981 44.408,8.347 C44.2699993,8.38500019 44.1530005,8.45099953 44.057,8.545 C43.9609995,8.63900047 43.8880003,8.76299923 43.838,8.917 C43.7879998,9.07100077 43.763,9.26199886 43.763,9.49 L43.763,9.898 L45.365,9.898 L45.365,10.954 L43.811,10.954 L43.811,16 L42.329,16 Z M51.095,16 L50.429,16 C50.2889993,16 50.1790004,15.9790002 50.099,15.937 C50.0189996,15.8949998 49.9590002,15.8100006 49.919,15.682 L49.787,15.244 C49.6309992,15.3840007 49.4780008,15.5069995 49.328,15.613 C49.1779993,15.7190005 49.0230008,15.8079996 48.863,15.88 C48.7029992,15.9520004 48.5330009,16.0059998 48.353,16.042 C48.1729991,16.0780002 47.9730011,16.096 47.753,16.096 C47.4929987,16.096 47.2530011,16.0610004 47.033,15.991 C46.8129989,15.9209996 46.6240008,15.8160007 46.466,15.676 C46.3079992,15.5359993 46.1850004,15.362001 46.097,15.154 C46.0089996,14.945999 45.965,14.7040014 45.965,14.428 C45.965,14.1959988 46.0259994,13.9670011 46.148,13.741 C46.2700006,13.5149989 46.4729986,13.3110009 46.757,13.129 C47.0410014,12.9469991 47.4189976,12.7960006 47.891,12.676 C48.3630024,12.5559994 48.9489965,12.4880001 49.649,12.472 L49.649,12.112 C49.649,11.6999979 49.5620009,11.395001 49.388,11.197 C49.2139991,10.998999 48.9610017,10.9 48.629,10.9 C48.3889988,10.9 48.1890008,10.9279997 48.029,10.984 C47.8689992,11.0400003 47.7300006,11.1029996 47.612,11.173 C47.4939994,11.2430003 47.3850005,11.3059997 47.285,11.362 C47.1849995,11.4180003 47.0750006,11.446 46.955,11.446 C46.8549995,11.446 46.7690004,11.4200003 46.697,11.368 C46.6249996,11.3159997 46.5670002,11.2520004 46.523,11.176 L46.253,10.702 C46.9610035,10.0539968 47.814995,9.73 48.815,9.73 C49.1750018,9.73 49.4959986,9.78899941 49.778,9.907 C50.0600014,10.0250006 50.298999,10.1889989 50.495,10.399 C50.691001,10.609001 50.8399995,10.8599985 50.942,11.152 C51.0440005,11.4440015 51.095,11.7639983 51.095,12.112 L51.095,16 Z M48.215,15.076 C48.3670008,15.076 48.5069994,15.0620001 48.635,15.034 C48.7630006,15.0059999 48.8839994,14.9640003 48.998,14.908 C49.1120006,14.8519997 49.2219995,14.7830004 49.328,14.701 C49.4340005,14.6189996 49.5409995,14.5220006 49.649,14.41 L49.649,13.372 C49.2169978,13.3920001 48.8560014,13.4289997 48.566,13.483 C48.2759985,13.5370003 48.0430009,13.6059996 47.867,13.69 C47.6909991,13.7740004 47.5660004,13.8719994 47.492,13.984 C47.4179996,14.0960006 47.381,14.2179993 47.381,14.35 C47.381,14.6100013 47.4579992,14.7959994 47.612,14.908 C47.7660008,15.0200006 47.9669988,15.076 48.215,15.076 Z M56.879,11.146 C56.8349998,11.2020003 56.7920002,11.2459998 56.75,11.278 C56.7079998,11.3100002 56.6470004,11.326 56.567,11.326 C56.4909996,11.326 56.4170004,11.3030002 56.345,11.257 C56.2729996,11.2109998 56.1870005,11.1590003 56.087,11.101 C55.9869995,11.0429997 55.8680007,10.9910002 55.73,10.945 C55.5919993,10.8989998 55.421001,10.876 55.217,10.876 C54.9569987,10.876 54.729001,10.9229995 54.533,11.017 C54.336999,11.1110005 54.1740007,11.2459991 54.044,11.422 C53.9139994,11.5980009 53.8170003,11.8109987 53.753,12.061 C53.6889997,12.3110013 53.657,12.5939984 53.657,12.91 C53.657,13.2380016 53.6919997,13.5299987 53.762,13.786 C53.8320004,14.0420013 53.9329993,14.2569991 54.065,14.431 C54.1970007,14.6050009 54.3569991,14.7369996 54.545,14.827 C54.7330009,14.9170004 54.9449988,14.962 55.181,14.962 C55.4170012,14.962 55.6079993,14.9330003 55.754,14.875 C55.9000007,14.8169997 56.0229995,14.7530004 56.123,14.683 C56.2230005,14.6129996 56.3099996,14.5490003 56.384,14.491 C56.4580004,14.4329997 56.5409995,14.404 56.633,14.404 C56.7530006,14.404 56.8429997,14.4499995 56.903,14.542 L57.329,15.082 C57.1649992,15.274001 56.987001,15.4349993 56.795,15.565 C56.602999,15.6950007 56.404001,15.7989996 56.198,15.877 C55.991999,15.9550004 55.7790011,16.0099998 55.559,16.042 C55.3389989,16.0740002 55.1210011,16.09 54.905,16.09 C54.5249981,16.09 54.1670017,16.0190007 53.831,15.877 C53.4949983,15.7349993 53.2020013,15.5280014 52.952,15.256 C52.7019988,14.9839986 52.5040007,14.651002 52.358,14.257 C52.2119993,13.862998 52.139,13.4140025 52.139,12.91 C52.139,12.4579977 52.2039994,12.0390019 52.334,11.653 C52.4640007,11.2669981 52.6549987,10.9330014 52.907,10.651 C53.1590013,10.3689986 53.4709981,10.1480008 53.843,9.988 C54.2150019,9.8279992 54.6429976,9.748 55.127,9.748 C55.5870023,9.748 55.9899983,9.82199926 56.336,9.97 C56.6820017,10.1180007 56.9929986,10.3299986 57.269,10.606 L56.879,11.146 Z M60.299,16.096 C59.7669973,16.096 59.3570014,15.9450015 59.069,15.643 C58.7809986,15.3409985 58.637,14.9240027 58.637,14.392 L58.637,10.954 L58.013,10.954 C57.9329996,10.954 57.8640003,10.9280003 57.806,10.876 C57.7479997,10.8239997 57.719,10.7460005 57.719,10.642 L57.719,10.054 L58.709,9.892 L59.021,8.212 C59.0370001,8.1319996 59.0739997,8.07000022 59.132,8.026 C59.1900003,7.98199978 59.2629996,7.96 59.351,7.96 L60.119,7.96 L60.119,9.898 L61.739,9.898 L61.739,10.954 L60.119,10.954 L60.119,14.29 C60.119,14.482001 60.1669995,14.6319995 60.263,14.74 C60.3590005,14.8480005 60.4869992,14.902 60.647,14.902 C60.7390005,14.902 60.8159997,14.8910001 60.878,14.869 C60.9400003,14.8469999 60.9939998,14.8240001 61.04,14.8 C61.0860002,14.7759999 61.1269998,14.7530001 61.163,14.731 C61.1990002,14.7089999 61.2349998,14.698 61.271,14.698 C61.3150002,14.698 61.3509999,14.7089999 61.379,14.731 C61.4070001,14.7530001 61.4369998,14.7859998 61.469,14.83 L61.913,15.55 C61.6969989,15.7300009 61.4490014,15.8659995 61.169,15.958 C60.8889986,16.0500005 60.5990015,16.096 60.299,16.096 Z M64.277,9.844 L64.277,13.756 C64.277,14.1320019 64.3639991,14.422999 64.538,14.629 C64.7120009,14.835001 64.9729983,14.938 65.321,14.938 C65.5770013,14.938 65.8169989,14.8810006 66.041,14.767 C66.2650011,14.6529994 66.476999,14.496001 66.677,14.296 L66.677,9.844 L68.159,9.844 L68.159,16 L67.253,16 C67.060999,16 66.9350003,15.9100009 66.875,15.73 L66.773,15.238 C66.6449994,15.3660006 66.5130007,15.4829995 66.377,15.589 C66.2409993,15.6950005 66.0960008,15.7849996 65.942,15.859 C65.7879992,15.9330004 65.6220009,15.9909998 65.444,16.033 C65.2659991,16.0750002 65.075001,16.096 64.871,16.096 C64.5349983,16.096 64.2380013,16.0390006 63.98,15.925 C63.7219987,15.8109994 63.5050009,15.650001 63.329,15.442 C63.1529991,15.233999 63.0200005,14.9870014 62.93,14.701 C62.8399996,14.4149986 62.795,14.1000017 62.795,13.756 L62.795,9.844 L64.277,9.844 Z M69.743,16 L69.743,9.844 L70.613,9.844 C70.7650008,9.844 70.8709997,9.87199972 70.931,9.928 C70.9910003,9.98400028 71.0309999,10.0799993 71.051,10.216 L71.141,10.96 C71.3610011,10.5799981 71.6189985,10.2800011 71.915,10.06 C72.2110015,9.8399989 72.5429982,9.73 72.911,9.73 C73.2150015,9.73 73.466999,9.7999993 73.667,9.94 L73.475,11.05 C73.4629999,11.1220004 73.4370002,11.1729999 73.397,11.203 C73.3569998,11.2330002 73.3030003,11.248 73.235,11.248 C73.1749997,11.248 73.0930005,11.2340001 72.989,11.206 C72.8849995,11.1779999 72.7470009,11.164 72.575,11.164 C72.2669985,11.164 72.0030011,11.2489992 71.783,11.419 C71.5629989,11.5890008 71.3770008,11.8379984 71.225,12.166 L71.225,16 L69.743,16 Z M77.189,9.748 C77.5770019,9.748 77.9339984,9.80999938 78.26,9.934 C78.5860016,10.0580006 78.8669988,10.2389988 79.103,10.477 C79.3390012,10.7150012 79.5229993,11.0069983 79.655,11.353 C79.7870007,11.6990017 79.853,12.0939978 79.853,12.538 C79.853,12.6500006 79.8480001,12.7429996 79.838,12.817 C79.828,12.8910004 79.8100001,12.9489998 79.784,12.991 C79.7579999,13.0330002 79.7230002,13.0629999 79.679,13.081 C79.6349998,13.0990001 79.5790003,13.108 79.511,13.108 L75.707,13.108 C75.7510002,13.7400032 75.9209985,14.2039985 76.217,14.5 C76.5130015,14.7960015 76.9049976,14.944 77.393,14.944 C77.6330012,14.944 77.8399991,14.9160003 78.014,14.86 C78.1880009,14.8039997 78.3399993,14.7420003 78.47,14.674 C78.6000006,14.6059997 78.7139995,14.5440003 78.812,14.488 C78.9100005,14.4319997 79.0049995,14.404 79.097,14.404 C79.1570003,14.404 79.2089998,14.4159999 79.253,14.44 C79.2970002,14.4640001 79.3349998,14.4979998 79.367,14.542 L79.799,15.082 C79.6349992,15.274001 79.451001,15.4349993 79.247,15.565 C79.042999,15.6950007 78.8300011,15.7989996 78.608,15.877 C78.3859989,15.9550004 78.1600011,16.0099998 77.93,16.042 C77.6999989,16.0740002 77.4770011,16.09 77.261,16.09 C76.8329979,16.09 76.4350018,16.0190007 76.067,15.877 C75.6989982,15.7349993 75.3790014,15.5250014 75.107,15.247 C74.8349986,14.9689986 74.6210008,14.625002 74.465,14.215 C74.3089992,13.804998 74.231,13.3300027 74.231,12.79 C74.231,12.3699979 74.2989993,11.9750019 74.435,11.605 C74.5710007,11.2349982 74.7659987,10.9130014 75.02,10.639 C75.2740013,10.3649986 75.5839982,10.1480008 75.95,9.988 C76.3160018,9.8279992 76.7289977,9.748 77.189,9.748 Z M77.219,10.81 C76.7869978,10.81 76.4490012,10.9319988 76.205,11.176 C75.9609988,11.4200012 75.8050003,11.7659978 75.737,12.214 L78.521,12.214 C78.521,12.021999 78.4950003,11.8410009 78.443,11.671 C78.3909997,11.5009991 78.3110005,11.3520006 78.203,11.224 C78.0949995,11.0959994 77.9590008,10.9950004 77.795,10.921 C77.6309992,10.8469996 77.4390011,10.81 77.219,10.81 Z M81.059,16 L81.059,9.844 L81.929,9.844 C82.0810008,9.844 82.1869997,9.87199972 82.247,9.928 C82.3070003,9.98400028 82.3469999,10.0799993 82.367,10.216 L82.457,10.96 C82.6770011,10.5799981 82.9349985,10.2800011 83.231,10.06 C83.5270015,9.8399989 83.8589982,9.73 84.227,9.73 C84.5310015,9.73 84.782999,9.7999993 84.983,9.94 L84.791,11.05 C84.7789999,11.1220004 84.7530002,11.1729999 84.713,11.203 C84.6729998,11.2330002 84.6190003,11.248 84.551,11.248 C84.4909997,11.248 84.4090005,11.2340001 84.305,11.206 C84.2009995,11.1779999 84.0630009,11.164 83.891,11.164 C83.5829985,11.164 83.3190011,11.2489992 83.099,11.419 C82.8789989,11.5890008 82.6930008,11.8379984 82.541,12.166 L82.541,16 L81.059,16 Z M90.029,12.946 L90.029,16 L88.415,16 L88.415,7.324 L91.241,7.324 C91.8210029,7.324 92.3229979,7.39199932 92.747,7.528 C93.1710021,7.66400068 93.5209986,7.85399878 93.797,8.098 C94.0730014,8.34200122 94.2769993,8.6339983 94.409,8.974 C94.5410007,9.3140017 94.607,9.68599798 94.607,10.09 C94.607,10.5100021 94.5370007,10.8949983 94.397,11.245 C94.2569993,11.5950018 94.0470014,11.8959987 93.767,12.148 C93.4869986,12.4000013 93.1370021,12.5959993 92.717,12.736 C92.2969979,12.8760007 91.8050028,12.946 91.241,12.946 L90.029,12.946 Z M90.029,11.686 L91.241,11.686 C91.5370015,11.686 91.7949989,11.6490004 92.015,11.575 C92.2350011,11.5009996 92.4169993,11.3950007 92.561,11.257 C92.7050007,11.1189993 92.8129996,10.951001 92.885,10.753 C92.9570004,10.554999 92.993,10.3340012 92.993,10.09 C92.993,9.85799884 92.9570004,9.64800094 92.885,9.46 C92.8129996,9.27199906 92.7050007,9.11200066 92.561,8.98 C92.4169993,8.84799934 92.2350011,8.74700035 92.015,8.677 C91.7949989,8.60699965 91.5370015,8.572 91.241,8.572 L90.029,8.572 L90.029,11.686 Z M100.601,16 L99.935,16 C99.7949993,16 99.6850004,15.9790002 99.605,15.937 C99.5249996,15.8949998 99.4650002,15.8100006 99.425,15.682 L99.293,15.244 C99.1369992,15.3840007 98.9840008,15.5069995 98.834,15.613 C98.6839992,15.7190005 98.5290008,15.8079996 98.369,15.88 C98.2089992,15.9520004 98.0390009,16.0059998 97.859,16.042 C97.6789991,16.0780002 97.4790011,16.096 97.259,16.096 C96.9989987,16.096 96.7590011,16.0610004 96.539,15.991 C96.3189989,15.9209996 96.1300008,15.8160007 95.972,15.676 C95.8139992,15.5359993 95.6910004,15.362001 95.603,15.154 C95.5149996,14.945999 95.471,14.7040014 95.471,14.428 C95.471,14.1959988 95.5319994,13.9670011 95.654,13.741 C95.7760006,13.5149989 95.9789986,13.3110009 96.263,13.129 C96.5470014,12.9469991 96.9249976,12.7960006 97.397,12.676 C97.8690024,12.5559994 98.4549965,12.4880001 99.155,12.472 L99.155,12.112 C99.155,11.6999979 99.0680009,11.395001 98.894,11.197 C98.7199991,10.998999 98.4670017,10.9 98.135,10.9 C97.8949988,10.9 97.6950008,10.9279997 97.535,10.984 C97.3749992,11.0400003 97.2360006,11.1029996 97.118,11.173 C96.9999994,11.2430003 96.8910005,11.3059997 96.791,11.362 C96.6909995,11.4180003 96.5810006,11.446 96.461,11.446 C96.3609995,11.446 96.2750004,11.4200003 96.203,11.368 C96.1309996,11.3159997 96.0730002,11.2520004 96.029,11.176 L95.759,10.702 C96.4670035,10.0539968 97.320995,9.73 98.321,9.73 C98.6810018,9.73 99.0019986,9.78899941 99.284,9.907 C99.5660014,10.0250006 99.804999,10.1889989 100.001,10.399 C100.197001,10.609001 100.345999,10.8599985 100.448,11.152 C100.550001,11.4440015 100.601,11.7639983 100.601,12.112 L100.601,16 Z M97.721,15.076 C97.8730008,15.076 98.0129994,15.0620001 98.141,15.034 C98.2690006,15.0059999 98.3899994,14.9640003 98.504,14.908 C98.6180006,14.8519997 98.7279995,14.7830004 98.834,14.701 C98.9400005,14.6189996 99.0469995,14.5220006 99.155,14.41 L99.155,13.372 C98.7229978,13.3920001 98.3620015,13.4289997 98.072,13.483 C97.7819985,13.5370003 97.5490009,13.6059996 97.373,13.69 C97.1969991,13.7740004 97.0720004,13.8719994 96.998,13.984 C96.9239996,14.0960006 96.887,14.2179993 96.887,14.35 C96.887,14.6100013 96.9639992,14.7959994 97.118,14.908 C97.2720008,15.0200006 97.4729988,15.076 97.721,15.076 Z M102.059,16 L102.059,9.844 L102.929,9.844 C103.081001,9.844 103.187,9.87199972 103.247,9.928 C103.307,9.98400028 103.347,10.0799993 103.367,10.216 L103.457,10.96 C103.677001,10.5799981 103.934999,10.2800011 104.231,10.06 C104.527001,9.8399989 104.858998,9.73 105.227,9.73 C105.531002,9.73 105.782999,9.7999993 105.983,9.94 L105.791,11.05 C105.779,11.1220004 105.753,11.1729999 105.713,11.203 C105.673,11.2330002 105.619,11.248 105.551,11.248 C105.491,11.248 105.409001,11.2340001 105.305,11.206 C105.200999,11.1779999 105.063001,11.164 104.891,11.164 C104.582998,11.164 104.319001,11.2489992 104.099,11.419 C103.878999,11.5890008 103.693001,11.8379984 103.541,12.166 L103.541,16 L102.059,16 Z M108.983,16.096 C108.450997,16.096 108.041001,15.9450015 107.753,15.643 C107.464999,15.3409985 107.321,14.9240027 107.321,14.392 L107.321,10.954 L106.697,10.954 C106.617,10.954 106.548,10.9280003 106.49,10.876 C106.432,10.8239997 106.403,10.7460005 106.403,10.642 L106.403,10.054 L107.393,9.892 L107.705,8.212 C107.721,8.1319996 107.758,8.07000022 107.816,8.026 C107.874,7.98199978 107.947,7.96 108.035,7.96 L108.803,7.96 L108.803,9.898 L110.423,9.898 L110.423,10.954 L108.803,10.954 L108.803,14.29 C108.803,14.482001 108.851,14.6319995 108.947,14.74 C109.043,14.8480005 109.170999,14.902 109.331,14.902 C109.423,14.902 109.5,14.8910001 109.562,14.869 C109.624,14.8469999 109.678,14.8240001 109.724,14.8 C109.77,14.7759999 109.811,14.7530001 109.847,14.731 C109.883,14.7089999 109.919,14.698 109.955,14.698 C109.999,14.698 110.035,14.7089999 110.063,14.731 C110.091,14.7530001 110.121,14.7859998 110.153,14.83 L110.597,15.55 C110.380999,15.7300009 110.133001,15.8659995 109.853,15.958 C109.572999,16.0500005 109.283001,16.096 108.983,16.096 Z" id="Text" fill="#FFFFFF"></path>
        </g>
    </g>
</svg>
